<svg width="114" height="114" viewBox="0 0 114 114" fill="none" xmlns="http://www.w3.org/2000/svg">
<rect width="114" height="114" rx="57" fill="#17BCE0"/>
<path d="M35.625 78.375H38.76L70.3237 46.8113L67.1887 43.6763L35.625 75.24V78.375ZM79.3725 43.7475L70.2525 34.6275L73.245 31.635C74.0525 30.8275 75.05 30.4238 76.2375 30.4238C77.425 30.4238 78.4225 30.8275 79.23 31.635L82.365 34.77C83.1725 35.5775 83.5762 36.575 83.5762 37.7625C83.5762 38.95 83.1725 39.9475 82.365 40.755L79.3725 43.7475ZM76.38 46.74L40.47 82.65H31.35V73.53L67.26 37.62L76.38 46.74ZM68.7562 45.2438L67.1887 43.6763L70.3237 46.8113L68.7562 45.2438Z" fill="white"/>
</svg>
